<?xml version="1.0" encoding="UTF-8"?> <svg xmlns="http://www.w3.org/2000/svg" width="540" height="540" fill="none" viewBox="0 0 540 540"><mask id="a" width="540" height="540" x="0" y="0" maskUnits="userSpaceOnUse" style="mask-type:luminance"><path fill="#fff" d="M0 0h540v540H0V0Z"></path></mask><g mask="url(#a)"><path fill="#415BF7" fill-opacity=".12" d="m11.472-9.275 23.464 6.561C58.4 3.847 105.328 16.97 147.63 39.283c42.302 22.313 79.977 53.817 111.706 97.136 31.727 43.32 57.508 98.456 89.896 140.462 32.39 42.007 71.387 70.884 115.01 90.572 43.624 19.687 91.874 30.184 133.515 53.81 41.64 23.626 76.673 60.381 94.19 78.759l17.515 18.377 139.222-276.585-12.89-27.567c-12.89-27.568-38.671-82.704-81.633-103.704-42.963-21-103.108-7.865-145.41-30.178C566.449 58.052 541.99.29 512.245-46.968c-29.745-47.258-64.778-84.013-100.471-119.455-35.693-35.442-72.048-69.572-115.671-89.259-43.623-19.688-94.517-24.933-119.963-27.556l-25.446-2.622L11.472-9.275Z"></path><path fill="#415BF7" fill-opacity=".12" d="m712.532 361.98-7.038-17.208c-7.038-17.206-21.115-51.621-42.812-77.86-21.696-26.24-51.012-44.304-81.02-61.624-30.01-17.321-60.711-33.898-96.954-44.529-36.242-10.632-78.027-15.318-101.109-40.07-23.082-24.754-27.461-69.574-49.85-95.07C311.36.124 270.961-6.048 250.761-9.134l-20.199-3.086 158.395-169.951 13.965 9.774 69.827 48.876 83.792 58.65L640.333-6.22l83.792 58.65c51.206 35.842 102.413 71.684 153.618 107.527l13.966 9.774L712.532 361.98Z"></path></g></svg>