<?xml version="1.0" encoding="UTF-8"?> <svg xmlns="http://www.w3.org/2000/svg" width="96" height="64" fill="none" viewBox="0 0 96 64"><path fill="#071C39" d="M40.725 36.96c-1.472 0-2.741-.326-3.81-.975-1.06-.657-1.878-1.57-2.455-2.745-.57-1.18-.855-2.552-.855-4.116 0-1.564.285-2.943.855-4.136.577-1.2 1.38-2.135 2.407-2.805 1.034-.676 2.24-1.014 3.619-1.014a7.248 7.248 0 0 1 2.357.398c.79.275 1.512.716 2.117 1.293.637.59 1.144 1.372 1.522 2.346.378.975.566 2.174.566 3.6v.994H35.276v-2.028h9.386c0-.862-.172-1.63-.517-2.307a3.897 3.897 0 0 0-1.452-1.6c-.623-.392-1.36-.588-2.207-.588-.935 0-1.743.232-2.426.696a4.578 4.578 0 0 0-1.561 1.79 5.259 5.259 0 0 0-.547 2.367v1.352c0 1.153.199 2.131.596 2.933.405.796.965 1.402 1.68 1.82.717.41 1.549.616 2.497.616.616 0 1.173-.086 1.67-.258.486-.168.93-.44 1.303-.796.364-.358.646-.802.845-1.332l2.267.636a5.03 5.03 0 0 1-1.203 2.03c-.564.575-1.26 1.026-2.088 1.351-.83.318-1.76.477-2.794.477Zm-20.043-9.505v9.187h-2.346V16.28h2.346v7.477h.2a4.318 4.318 0 0 1 1.61-1.88c.723-.47 1.684-.705 2.884-.705 1.04 0 1.952.21 2.734.626.782.411 1.389 1.044 1.82 1.9.437.848.656 1.928.656 3.24v9.705h-2.347v-9.545c0-1.213-.315-2.15-.944-2.814-.624-.67-1.49-1.004-2.596-1.004-.77 0-1.458.162-2.068.487a3.56 3.56 0 0 0-1.432 1.422c-.344.623-.517 1.38-.517 2.267ZM.137 18.466V16.28h15.272v2.187H9.006v18.176H6.54V18.466H.137Zm73.001 36.347v8.829h-4.235V48.369h4.037v2.695h.179a4.257 4.257 0 0 1 1.7-2.108c.795-.524 1.76-.786 2.893-.786 1.06 0 1.986.232 2.774.696.789.464 1.402 1.127 1.84 1.989.437.855.656 1.876.656 3.063v9.724h-4.236v-8.969c.007-.934-.232-1.664-.716-2.187-.483-.53-1.15-.796-1.998-.796-.57 0-1.074.123-1.512.368a2.57 2.57 0 0 0-1.014 1.074c-.238.464-.361 1.025-.368 1.681Zm-14.01 9.127c-1.571 0-2.924-.318-4.057-.954a6.538 6.538 0 0 1-2.605-2.725c-.61-1.18-.915-2.575-.915-4.186 0-1.57.305-2.95.915-4.136.61-1.187 1.468-2.111 2.575-2.774 1.114-.663 2.42-.995 3.918-.995a7.97 7.97 0 0 1 2.814.488 6.26 6.26 0 0 1 2.287 1.441c.656.643 1.166 1.452 1.53 2.427.365.967.548 2.1.548 3.4v1.163H53.24v-2.625h8.909c0-.61-.132-1.15-.397-1.62a2.846 2.846 0 0 0-1.104-1.104c-.464-.272-1.004-.408-1.621-.408-.643 0-1.213.15-1.71.448-.49.291-.875.686-1.153 1.183a3.34 3.34 0 0 0-.428 1.64v2.496c0 .756.139 1.409.418 1.96.285.55.686.974 1.203 1.272.517.298 1.13.447 1.839.447.47 0 .902-.066 1.293-.199a2.678 2.678 0 0 0 1.004-.596 2.59 2.59 0 0 0 .637-.975l3.917.259a5.345 5.345 0 0 1-1.223 2.466c-.61.696-1.398 1.24-2.366 1.63-.961.385-2.072.577-3.331.577Zm-8.633-15.57-5.34 15.272h-4.772l-5.34-15.272h4.475l3.172 10.927h.159L46.01 48.37h4.484ZM26.889 63.94c-1.571 0-2.923-.318-4.056-.954a6.532 6.532 0 0 1-2.605-2.725c-.61-1.18-.915-2.575-.915-4.186 0-1.57.305-2.95.915-4.136.609-1.187 1.468-2.111 2.575-2.774 1.113-.663 2.419-.995 3.917-.995 1.008 0 1.946.163 2.814.488.858.307 1.639.8 2.287 1.441.657.643 1.167 1.452 1.532 2.427.364.967.546 2.1.546 3.4v1.163H21.003v-2.625h8.909c0-.61-.132-1.15-.398-1.62a2.851 2.851 0 0 0-1.103-1.104c-.464-.272-1.004-.408-1.621-.408-.643 0-1.213.15-1.71.448a3.14 3.14 0 0 0-1.154 1.183 3.339 3.339 0 0 0-.427 1.64v2.496c0 .756.139 1.409.417 1.96.285.55.687.974 1.204 1.272.517.298 1.13.447 1.839.447.47 0 .902-.066 1.293-.199a2.678 2.678 0 0 0 1.004-.596 2.6 2.6 0 0 0 .636-.975l3.918.259a5.355 5.355 0 0 1-1.223 2.466c-.61.696-1.4 1.24-2.367 1.63-.961.385-2.071.577-3.331.577ZM12.71 49.135c-.08-.802-.421-1.425-1.024-1.869-.603-.444-1.422-.666-2.456-.666-.703 0-1.296.1-1.78.298-.484.192-.855.46-1.113.805-.25.34-.383.752-.378 1.174-.013.364.063.683.228.954.173.272.408.508.706.706.299.193.643.362 1.035.508.39.139.808.258 1.252.357l1.83.438c.888.199 1.703.464 2.446.795.742.332 1.385.74 1.929 1.223a5.1 5.1 0 0 1 1.263 1.71c.305.657.46 1.41.467 2.258-.007 1.246-.325 2.326-.955 3.241-.623.908-1.524 1.614-2.704 2.118-1.173.497-2.59.746-4.246.746-1.644 0-3.076-.252-4.295-.756-1.213-.504-2.161-1.25-2.844-2.237-.676-.994-1.031-2.224-1.064-3.689h4.166c.047.683.242 1.253.587 1.71.35.451.819.792 1.402 1.024.59.226 1.256.338 1.998.338.73 0 1.363-.106 1.9-.318.543-.212.964-.507 1.262-.885a2.04 2.04 0 0 0 .448-1.302c0-.458-.136-.842-.408-1.154-.265-.311-.656-.576-1.173-.795a11.95 11.95 0 0 0-1.88-.597l-2.217-.556c-1.717-.418-3.072-1.071-4.066-1.96-.995-.888-1.49-2.084-1.482-3.589-.007-1.233.32-2.31.984-3.231.67-.922 1.588-1.641 2.755-2.158C6.45 43.259 7.776 43 9.26 43c1.51 0 2.83.259 3.957.776 1.134.517 2.015 1.236 2.645 2.158.63.921.955 1.988.975 3.201H12.71Z"></path><path fill="url(#a)" d="M93.467 24.182a5.936 5.936 0 0 1-8.394 0l-13.991-13.99A5.938 5.938 0 0 1 72.969.443a5.937 5.937 0 0 1 6.507 1.353l13.991 13.99a5.936 5.936 0 0 1 0 8.395Z"></path><path fill="url(#b)" d="M85.767 24.883c.082.081.165.161.25.237l-.007.008.002.002a7.43 7.43 0 0 1 2.167 5.728l5.842-5.841a5.937 5.937 0 0 0 .138-8.53l-.01.01c-.07-.07-2.148-2.117-5.586-2.805-3.498-.7-4.569-.7-6.296-.7h-.001c-1.726 0-2.797 0-5.246-.35-2.448-.35-5.254-1.74-5.254-1.74l13.99 13.991.01-.01Z"></path><path fill="url(#c)" d="M57.431 13.818a5.936 5.936 0 0 1 8.395 0l13.99 13.99a5.936 5.936 0 1 1-8.394 8.395l-13.99-13.99a5.936 5.936 0 0 1 0-8.395Z"></path><path fill="url(#d)" d="M65.132 13.117a5.953 5.953 0 0 0-.251-.237l.007-.008-.002-.002a7.433 7.433 0 0 1-2.167-5.728l-5.841 5.841a5.935 5.935 0 0 0-.139 8.53l.01-.01c.07.07 2.148 2.117 5.586 2.805 3.498.7 4.569.7 6.297.7 1.726 0 2.798 0 5.246.35 2.448.35 5.255 1.74 5.255 1.74L65.142 13.107l-.01.01Z"></path><defs><linearGradient id="a" x1="80.542" x2="121.76" y1="-13.172" y2="42.771" gradientUnits="userSpaceOnUse"><stop offset=".086" stop-color="#00C7C7"></stop><stop offset=".756" stop-color="#00DBDB"></stop></linearGradient><linearGradient id="b" x1="86.124" x2="87.174" y1="29.427" y2="13.689" gradientUnits="userSpaceOnUse"><stop offset=".034" stop-color="#8CA5FF"></stop><stop offset=".57" stop-color="#5774FF"></stop><stop offset="1" stop-color="#2745FF"></stop></linearGradient><linearGradient id="c" x1="70.356" x2="29.138" y1="51.172" y2="-4.771" gradientUnits="userSpaceOnUse"><stop offset=".086" stop-color="#00C7C7"></stop><stop offset=".756" stop-color="#00DBDB"></stop></linearGradient><linearGradient id="d" x1="64.775" x2="63.724" y1="8.573" y2="24.311" gradientUnits="userSpaceOnUse"><stop offset=".034" stop-color="#8CA5FF"></stop><stop offset=".57" stop-color="#5774FF"></stop><stop offset="1" stop-color="#2745FF"></stop></linearGradient></defs></svg>