<?xml version="1.0" encoding="UTF-8"?> <svg xmlns="http://www.w3.org/2000/svg" width="376" height="260" fill="none" viewBox="0 0 376 260"><g clip-path="url(#a)"><path fill="#000" d="M284.912 223.252v35.32h-16.944V197.48h16.148v10.776h.72a17.043 17.043 0 0 1 6.8-8.432c3.18-2.092 7.04-3.14 11.572-3.14 4.24 0 7.94.928 11.096 2.784 3.156 1.856 5.608 4.508 7.36 7.956 1.748 3.42 2.624 7.5 2.624 12.248v38.896h-16.944v-35.872c.028-3.74-.928-6.656-2.864-8.752-1.936-2.12-4.6-3.18-7.996-3.18-2.28 0-4.292.488-6.04 1.472-1.728.98-3.08 2.412-4.06 4.296-.956 1.856-1.444 4.096-1.472 6.72Zm-54.916 36.508c-6.284 0-11.696-1.268-16.228-3.816a26.146 26.146 0 0 1-10.42-10.896c-2.44-4.72-3.66-10.3-3.66-16.744 0-6.284 1.22-11.8 3.66-16.548 2.44-4.744 5.872-8.44 10.3-11.096 4.456-2.652 9.68-3.976 15.672-3.976a31.865 31.865 0 0 1 11.256 1.948 24.972 24.972 0 0 1 9.144 5.768c2.628 2.572 4.668 5.808 6.128 9.704 1.456 3.872 2.184 8.404 2.184 13.6v4.656h-51.584v-10.5h35.64c0-2.44-.532-4.6-1.592-6.48a11.398 11.398 0 0 0-4.416-4.42c-1.856-1.084-4.016-1.628-6.48-1.628-2.576 0-4.856.596-6.844 1.788a12.581 12.581 0 0 0-4.616 4.736 13.361 13.361 0 0 0-1.708 6.56v9.984c0 3.024.56 5.632 1.672 7.836 1.14 2.2 2.744 3.896 4.812 5.088 2.068 1.196 4.52 1.792 7.36 1.792 1.88 0 3.6-.264 5.168-.796a10.729 10.729 0 0 0 4.016-2.388c1.116-1.06 1.96-2.36 2.544-3.896l15.672 1.032a21.394 21.394 0 0 1-4.892 9.864c-2.44 2.784-5.596 4.96-9.464 6.524-3.848 1.54-8.288 2.304-13.324 2.304Zm-33.408-62.28-21.36 61.088H156.14l-21.36-61.092h17.9l12.688 43.712h.636l12.648-43.712 17.936.004Zm-93.312 62.28c-6.284 0-11.692-1.268-16.228-3.816a26.148 26.148 0 0 1-10.42-10.896c-2.44-4.72-3.66-10.3-3.66-16.744 0-6.284 1.22-11.8 3.66-16.548 2.44-4.744 5.872-8.44 10.3-11.096 4.456-2.652 9.68-3.976 15.672-3.976a31.865 31.865 0 0 1 11.256 1.948A24.972 24.972 0 0 1 123 204.4c2.624 2.572 4.664 5.808 6.124 9.704 1.46 3.872 2.188 8.404 2.188 13.6v4.656h-51.58v-10.5h35.636c0-2.44-.532-4.6-1.592-6.48a11.398 11.398 0 0 0-4.416-4.42c-1.856-1.084-4.016-1.628-6.48-1.628-2.572 0-4.856.596-6.84 1.788a12.517 12.517 0 0 0-4.616 4.736 13.365 13.365 0 0 0-1.712 6.56v9.984c0 3.024.56 5.632 1.672 7.836 1.14 2.2 2.744 3.896 4.812 5.088 2.068 1.196 4.52 1.792 7.36 1.792 1.88 0 3.604-.264 5.168-.796a10.729 10.729 0 0 0 4.016-2.388c1.116-1.06 1.96-2.36 2.548-3.896l15.668 1.032a21.394 21.394 0 0 1-4.892 9.864c-2.44 2.784-5.592 4.96-9.464 6.524-3.844 1.54-8.288 2.304-13.324 2.304Zm-55.588-59.22c-.32-3.208-1.684-5.7-4.096-7.48-2.416-1.776-5.688-2.664-9.824-2.664-2.812 0-5.184.4-7.12 1.196-1.936.768-3.42 1.84-4.456 3.22a7.756 7.756 0 0 0-1.512 4.692 6.68 6.68 0 0 0 .92 3.82c.684 1.088 1.628 2.028 2.82 2.824a21.385 21.385 0 0 0 4.136 2.028 41.962 41.962 0 0 0 5.012 1.432l7.32 1.752a51.665 51.665 0 0 1 9.784 3.18c2.968 1.324 5.54 2.96 7.716 4.892a20.337 20.337 0 0 1 5.048 6.84c1.22 2.624 1.844 5.636 1.872 9.028-.028 4.984-1.3 9.308-3.82 12.968-2.492 3.632-6.096 6.456-10.816 8.472-4.696 1.988-10.356 2.98-16.984 2.98-6.576 0-12.304-1.008-17.184-3.02-4.852-2.016-8.64-5-11.372-8.948-2.704-3.98-4.124-8.896-4.256-14.76H17.54c.184 2.732.968 5.012 2.348 6.84 1.4 1.808 3.272 3.172 5.608 4.1 2.36.9 5.024 1.352 7.992 1.352 2.92 0 5.448-.424 7.6-1.272 2.172-.848 3.856-2.028 5.048-3.54 1.192-1.512 1.788-3.248 1.788-5.212 0-1.828-.54-3.364-1.628-4.612-1.06-1.248-2.624-2.308-4.692-3.18a47.738 47.738 0 0 0-7.52-2.388l-8.868-2.228c-6.868-1.672-12.288-4.28-16.268-7.836-3.976-3.552-5.952-8.336-5.924-14.36-.028-4.928 1.284-9.24 3.936-12.92 2.68-3.688 6.352-6.564 11.016-8.632 4.668-2.072 9.972-3.104 15.912-3.104 6.044 0 11.32 1.032 15.828 3.104 4.532 2.068 8.06 4.944 10.58 8.628 2.52 3.688 3.816 7.956 3.896 12.808H47.688Zm116.912-48.7c-5.884 0-10.96-1.296-15.232-3.896-4.24-2.624-7.516-6.28-9.824-10.976-2.28-4.72-3.42-10.208-3.42-16.468 0-6.256 1.14-11.772 3.42-16.544 2.308-4.8 5.52-8.536 9.628-11.216 4.136-2.704 8.96-4.056 14.476-4.056 3.18 0 6.32.532 9.428 1.592a23.36 23.36 0 0 1 8.468 5.168c2.548 2.36 4.576 5.488 6.088 9.388 1.508 3.896 2.264 8.696 2.264 14.4v3.976h-47.088v-8.116h37.544c0-3.448-.688-6.52-2.068-9.228a15.582 15.582 0 0 0-5.808-6.4c-2.492-1.568-5.436-2.348-8.828-2.348-3.74 0-6.972.928-9.704 2.784a18.321 18.321 0 0 0-6.244 7.16 21.033 21.033 0 0 0-2.188 9.464v5.408c0 4.616.796 8.528 2.384 11.736 1.62 3.18 3.86 5.608 6.72 7.28 2.868 1.64 6.196 2.464 9.988 2.464 2.464 0 4.692-.348 6.68-1.036a14.29 14.29 0 0 0 5.212-3.18 14.486 14.486 0 0 0 3.38-5.332l9.068 2.548a20.1 20.1 0 0 1-4.812 8.112c-2.256 2.308-5.04 4.112-8.352 5.408-3.316 1.276-7.04 1.912-11.176 1.912l-.004-.004Zm-81.308-38.024v36.752h-9.384V69.112h9.384v29.912h.796a17.272 17.272 0 0 1 6.44-7.52c2.892-1.88 6.736-2.824 11.536-2.824 4.164 0 7.812.84 10.94 2.508 3.128 1.64 5.552 4.176 7.28 7.596 1.748 3.392 2.624 7.716 2.624 12.964v38.82h-9.388v-38.184c0-4.852-1.26-8.6-3.78-11.252-2.492-2.68-5.952-4.02-10.38-4.02-3.076 0-5.832.652-8.272 1.952a14.243 14.243 0 0 0-5.728 5.684c-1.38 2.492-2.068 5.52-2.068 9.068ZM0 77.864v-8.752h61.092v8.752H35.476v72.704h-9.864V77.864H0Z"></path><path fill="url(#b)" d="M365.875 96.722a23.742 23.742 0 0 1-33.576 0l-55.96-55.96a23.755 23.755 0 0 1-6.74-21.527 23.762 23.762 0 0 1 14.284-17.457 23.744 23.744 0 0 1 26.028 5.404l55.964 55.96a23.736 23.736 0 0 1 0 33.58Z"></path><path fill="url(#c)" d="M335.072 99.526c.328.324.66.644 1 .948l-.028.032.008.008a29.707 29.707 0 0 1 6.806 10.521 29.708 29.708 0 0 1 1.866 12.391l23.36-23.36a23.744 23.744 0 0 0 .56-34.12l-.04.04c-.28-.28-8.592-8.472-22.348-11.224-13.992-2.8-18.272-2.8-25.184-2.8-6.904 0-11.192 0-20.988-1.4-9.788-1.4-21.016-6.96-21.016-6.96l55.96 55.964.044-.04Z"></path><path fill="url(#d)" d="M221.74 55.266a23.745 23.745 0 0 1 33.576 0l55.96 55.96a23.732 23.732 0 0 1 6.955 16.788 23.734 23.734 0 0 1-6.953 16.79 23.742 23.742 0 0 1-33.578.002l-55.96-55.96a23.738 23.738 0 0 1-6.955-16.79 23.737 23.737 0 0 1 6.955-16.79Z"></path><path fill="url(#e)" d="M252.531 52.466a24.12 24.12 0 0 0-1-.948l.032-.032-.012-.008a29.726 29.726 0 0 1-8.672-22.912l-23.36 23.36a23.73 23.73 0 0 0-.56 34.12l.04-.04c.28.28 8.592 8.472 22.348 11.224 13.992 2.8 18.28 2.8 25.184 2.8 6.912 0 11.196 0 20.992 1.4 9.788 1.4 21.016 6.96 21.016 6.96l-55.968-55.964-.04.04Z"></path></g><defs><linearGradient id="b" x1="318.5" x2="405.5" y1="-27" y2="64.5" gradientUnits="userSpaceOnUse"><stop stop-color="#00B4D0"></stop><stop offset=".5" stop-color="#21C1D9"></stop></linearGradient><linearGradient id="c" x1="340.704" x2="340.704" y1="123" y2="54.75" gradientUnits="userSpaceOnUse"><stop offset=".7" stop-color="#2069E5"></stop><stop offset="1" stop-color="#1654BE"></stop></linearGradient><linearGradient id="d" x1="267" x2="175.5" y1="189" y2="91.5" gradientUnits="userSpaceOnUse"><stop stop-color="#00B4D0"></stop><stop offset=".5" stop-color="#21C1D9"></stop></linearGradient><linearGradient id="e" x1="248" x2="246.903" y1="29" y2="97.242" gradientUnits="userSpaceOnUse"><stop offset=".7" stop-color="#2069E5"></stop><stop offset="1" stop-color="#1654BE"></stop></linearGradient><clipPath id="a"><path fill="#fff" d="M0 0h376v260H0z"></path></clipPath></defs></svg> 