<?xml version="1.0" encoding="utf-8"?>
<!-- Generator: Adobe Illustrator 27.0.0, SVG Export Plug-In . SVG Version: 6.00 Build 0)  -->
<svg version="1.1" id="图层_1" xmlns="http://www.w3.org/2000/svg" xmlns:xlink="http://www.w3.org/1999/xlink" x="0px" y="0px"
	 viewBox="0 0 181.42 181.42" style="enable-background:new 0 0 181.42 181.42;" xml:space="preserve">
<style type="text/css">
	.st0{fill:#B41C32;}
</style>
<path class="st0" d="M178.58,90.71l0,0.22l0,0.24l0,0.21l-0.01,0.24l-0.01,0.2l-0.01,0.22l-0.01,0.24l-0.01,0.26l-0.01,0.28
	l-0.01,0.19l-0.01,0.2l-0.01,0.21l-0.01,0.21l-0.01,0.22l-0.01,0.23l-0.01,0.23l-0.01,0.24l-0.01,0.25l-0.01,0.25l-0.01,0.26
	l-0.02,0.26l-0.02,0.27l-0.02,0.27l-0.02,0.28l-0.02,0.28l-0.02,0.29l-0.02,0.29l-0.02,0.3l-0.02,0.3l-0.03,0.3l-0.03,0.31
	l-0.03,0.31l-0.03,0.31l-0.03,0.32l-0.03,0.32l-0.03,0.32l-0.03,0.33l-0.03,0.33l-0.04,0.33l-0.04,0.33l-0.04,0.34l-0.04,0.34
	l-0.04,0.34l-0.04,0.34l-0.04,0.34l-0.05,0.35l-0.05,0.35l-0.05,0.35l-0.05,0.35l-0.05,0.35l-0.05,0.35l-0.05,0.35l-0.06,0.35
	l-0.06,0.35l-0.05,0.3l-0.06,0.35l-0.06,0.35l-0.06,0.35l-0.07,0.35l-0.07,0.35l-0.07,0.35l-0.07,0.35l-0.07,0.35l-0.07,0.35
	l-0.08,0.35l-0.08,0.35l-0.08,0.35l-0.08,0.35l-0.08,0.35l-0.08,0.35l-0.09,0.35l-0.09,0.35l-0.09,0.35l-0.09,0.34l-0.09,0.34
	l-0.09,0.34l-0.09,0.34l-0.1,0.34l-0.1,0.34l-0.1,0.34l-0.1,0.34l-0.1,0.34l-0.1,0.34l-0.11,0.34l-0.11,0.34l-0.11,0.34l-0.11,0.34
	l-0.11,0.34l-0.11,0.34l-0.11,0.34l-0.11,0.34l-0.12,0.34l-0.12,0.34l-0.12,0.34l-0.12,0.34l-0.12,0.34l-0.12,0.33l-0.12,0.33
	l-0.1,0.27l-0.13,0.33l-0.13,0.33l-0.13,0.33l-0.13,0.33l-0.13,0.33l-0.13,0.33l-0.13,0.33l-0.14,0.33l-0.14,0.33l-0.14,0.33
	l-0.14,0.33l-0.14,0.33l-0.14,0.33l-0.14,0.33l-0.14,0.33l-0.15,0.33l-0.15,0.32l-0.15,0.32l-0.15,0.32l-0.15,0.32l-0.15,0.32
	l-0.15,0.32l-0.15,0.32l-0.16,0.32l-0.16,0.32l-0.16,0.32l-0.16,0.32l-0.16,0.32l-0.16,0.32l-0.16,0.32l-0.17,0.32l-0.17,0.31
	l-0.17,0.31l-0.17,0.31l-0.17,0.31l-0.17,0.31l-0.17,0.31l-0.17,0.31l-0.18,0.31l-0.18,0.31l-0.18,0.31l-0.18,0.31l-0.11,0.18
	l-0.18,0.31l-0.18,0.31l-0.18,0.31l-0.19,0.3l-0.19,0.3l-0.19,0.3l-0.19,0.3l-0.19,0.3l-0.19,0.3l-0.19,0.3l-0.19,0.3l-0.19,0.3
	l-0.2,0.3l-0.2,0.3l-0.2,0.3l-0.2,0.3l-0.2,0.29l-0.2,0.29l-0.2,0.29l-0.2,0.29l-0.21,0.29l-0.21,0.29l-0.21,0.29l-0.21,0.29
	l-0.21,0.29l-0.21,0.29l-0.21,0.29l-0.21,0.29l-0.21,0.28l-0.22,0.28l-0.22,0.28l-0.22,0.28l-0.22,0.28l-0.22,0.28l-0.22,0.28
	l-0.22,0.28l-0.22,0.28l-0.22,0.28l-0.23,0.28l-0.23,0.27l-0.23,0.27l-0.16,0.19l-0.23,0.27l-0.23,0.27l-0.23,0.27l-0.23,0.27
	l-0.23,0.27l-0.24,0.27l-0.24,0.27l-0.24,0.27l-0.24,0.26l-0.24,0.26l-0.24,0.26l-0.24,0.26l-0.24,0.26l-0.24,0.26l-0.25,0.26
	l-0.25,0.26l-0.25,0.26l-0.25,0.26l-0.25,0.25l-0.25,0.25l-0.25,0.25l-0.25,0.25l-0.25,0.25l-0.25,0.25l-0.26,0.25l-0.26,0.25
	l-0.26,0.25l-0.26,0.25l-0.26,0.24l-0.26,0.24l-0.26,0.24l-0.26,0.24l-0.26,0.24l-0.26,0.24l-0.27,0.24l-0.27,0.24l-0.27,0.24
	l-0.27,0.23l-0.27,0.23l-0.27,0.23l-0.27,0.23l-0.27,0.23l-0.16,0.14l-0.27,0.23l-0.27,0.23l-0.27,0.23l-0.28,0.23l-0.28,0.22
	l-0.28,0.22l-0.28,0.22l-0.28,0.22l-0.28,0.22l-0.28,0.22l-0.28,0.22l-0.28,0.22l-0.28,0.22l-0.29,0.21l-0.29,0.21l-0.29,0.21
	l-0.29,0.21l-0.29,0.21l-0.29,0.21l-0.29,0.21l-0.29,0.21l-0.29,0.2l-0.29,0.2l-0.29,0.2l-0.29,0.2l-0.3,0.2l-0.3,0.2l-0.3,0.2
	l-0.3,0.2l-0.3,0.2l-0.3,0.19l-0.3,0.19l-0.3,0.19l-0.3,0.19l-0.3,0.19l-0.3,0.19l-0.3,0.19l-0.3,0.19l-0.31,0.18l-0.31,0.18
	l-0.31,0.18l-0.22,0.13l-0.31,0.18l-0.31,0.18l-0.31,0.18l-0.31,0.18l-0.31,0.17l-0.31,0.17l-0.31,0.17l-0.31,0.17l-0.31,0.17
	l-0.31,0.17l-0.31,0.17l-0.32,0.17l-0.32,0.16l-0.32,0.16l-0.32,0.16l-0.32,0.16l-0.32,0.16l-0.32,0.16l-0.32,0.16l-0.32,0.15
	l-0.32,0.15l-0.32,0.15l-0.32,0.15l-0.32,0.15l-0.32,0.15l-0.32,0.15l-0.33,0.15l-0.33,0.14l-0.33,0.14l-0.33,0.14l-0.33,0.14
	l-0.33,0.14l-0.33,0.14l-0.33,0.14l-0.33,0.14l-0.33,0.13l-0.33,0.13l-0.33,0.13l-0.33,0.13l-0.33,0.13l-0.33,0.13l-0.33,0.13
	l-0.19,0.07l-0.33,0.12l-0.33,0.12l-0.34,0.12l-0.34,0.12l-0.34,0.12l-0.34,0.12l-0.34,0.12l-0.34,0.12l-0.34,0.11l-0.34,0.11
	l-0.34,0.11l-0.34,0.11l-0.34,0.11l-0.34,0.11l-0.34,0.11l-0.34,0.1l-0.34,0.1l-0.34,0.1l-0.34,0.1l-0.34,0.1l-0.34,0.1l-0.34,0.1
	l-0.34,0.09l-0.34,0.09l-0.34,0.09l-0.35,0.09l-0.35,0.09l-0.35,0.09l-0.35,0.08l-0.35,0.08l-0.35,0.08l-0.35,0.08l-0.35,0.08
	l-0.35,0.08l-0.35,0.08l-0.35,0.07l-0.35,0.07l-0.35,0.07l-0.35,0.07l-0.35,0.07l-0.35,0.07l-0.35,0.06l-0.35,0.06l-0.29,0.05
	l-0.35,0.06l-0.35,0.06l-0.35,0.06l-0.35,0.05l-0.35,0.05l-0.35,0.05l-0.35,0.05l-0.35,0.05l-0.35,0.05l-0.34,0.04l-0.34,0.04
	l-0.34,0.04l-0.34,0.04l-0.34,0.04l-0.34,0.04l-0.33,0.04l-0.33,0.03l-0.33,0.03l-0.32,0.03l-0.32,0.03l-0.32,0.03l-0.32,0.03
	l-0.31,0.03l-0.31,0.03l-0.31,0.03l-0.3,0.02l-0.3,0.02l-0.29,0.02l-0.29,0.02l-0.28,0.02l-0.28,0.02l-0.27,0.02l-0.27,0.02
	l-0.26,0.02l-0.26,0.02l-0.25,0.01l-0.25,0.01l-0.24,0.01l-0.24,0.01l-0.23,0.01l-0.22,0.01l-0.22,0.01l-0.21,0.01l-0.2,0.01
	l-0.19,0.01l-0.19,0.01l-0.27,0.01l-0.25,0.01l-0.23,0.01l-0.21,0.01l-0.2,0.01l-0.23,0.01l-0.2,0l-0.19,0l-0.18,0l-0.03,0l-0.22,0
	l-0.24,0l-0.21,0l-0.24-0.01l-0.2-0.01l-0.22-0.01l-0.24-0.01l-0.26-0.01l-0.28-0.01l-0.19-0.01l-0.2-0.01L88,178.5l-0.21-0.01
	l-0.22-0.01l-0.23-0.01l-0.23-0.01l-0.24-0.01l-0.24-0.01l-0.25-0.01l-0.26-0.02l-0.26-0.02l-0.27-0.02l-0.27-0.02l-0.28-0.02
	l-0.28-0.02l-0.29-0.02l-0.29-0.02l-0.3-0.02l-0.3-0.02l-0.3-0.02l-0.31-0.03l-0.31-0.03l-0.31-0.03l-0.32-0.03l-0.32-0.03
	l-0.32-0.03l-0.33-0.03l-0.33-0.03l-0.33-0.04l-0.34-0.04l-0.34-0.04l-0.34-0.04l-0.34-0.04l-0.34-0.04l-0.34-0.04L78,177.64
	l-0.35-0.05l-0.35-0.05l-0.35-0.05l-0.35-0.05l-0.35-0.05l-0.35-0.05l-0.35-0.06l-0.35-0.06l-0.3-0.05l-0.35-0.06l-0.35-0.06
	l-0.35-0.06l-0.35-0.07l-0.35-0.07l-0.35-0.07l-0.35-0.07l-0.35-0.07l-0.35-0.07l-0.35-0.08l-0.35-0.08l-0.35-0.08l-0.35-0.08
	l-0.35-0.08l-0.35-0.08l-0.35-0.09L69,175.9l-0.35-0.09l-0.34-0.09l-0.34-0.09l-0.34-0.09l-0.34-0.09l-0.34-0.1l-0.34-0.1l-0.34-0.1
	l-0.34-0.1l-0.34-0.1l-0.34-0.1l-0.34-0.11l-0.34-0.11l-0.34-0.11l-0.34-0.11l-0.34-0.11l-0.34-0.11l-0.34-0.11l-0.34-0.11
	l-0.34-0.12l-0.34-0.12l-0.34-0.12l-0.34-0.12l-0.34-0.12l-0.34-0.12l-0.33-0.12l-0.27-0.1l-0.33-0.13l-0.33-0.13l-0.33-0.13
	l-0.33-0.13l-0.33-0.13l-0.33-0.13l-0.33-0.13l-0.33-0.14l-0.33-0.14l-0.33-0.14l-0.33-0.14l-0.33-0.14l-0.33-0.14l-0.33-0.14
	l-0.33-0.14l-0.32-0.15l-0.32-0.15l-0.32-0.15l-0.32-0.15l-0.32-0.15l-0.32-0.15l-0.32-0.15l-0.32-0.15l-0.32-0.16l-0.32-0.16
	l-0.32-0.16l-0.32-0.16l-0.32-0.16l-0.32-0.16l-0.32-0.16l-0.32-0.17l-0.31-0.17l-0.31-0.17L48.87,168l-0.31-0.17l-0.31-0.17
	l-0.31-0.17l-0.31-0.17l-0.31-0.18L47,166.96l-0.31-0.18l-0.31-0.18l-0.18-0.11l-0.31-0.18l-0.31-0.18l-0.31-0.18l-0.3-0.18
	l-0.3-0.19l-0.3-0.19l-0.3-0.19l-0.3-0.19l-0.3-0.19l-0.3-0.19l-0.3-0.19l-0.3-0.19l-0.3-0.2l-0.3-0.2l-0.3-0.2l-0.29-0.2l-0.29-0.2
	l-0.29-0.2l-0.29-0.2l-0.29-0.2l-0.29-0.21l-0.29-0.21l-0.29-0.21l-0.29-0.21l-0.29-0.21l-0.29-0.21l-0.29-0.21l-0.29-0.21
	l-0.28-0.21l-0.28-0.22l-0.28-0.22l-0.28-0.22l-0.28-0.22l-0.28-0.22l-0.28-0.22l-0.28-0.22l-0.28-0.22l-0.28-0.23l-0.28-0.23
	l-0.27-0.23l-0.27-0.23l-0.19-0.16l-0.27-0.23l-0.27-0.23l-0.27-0.23l-0.27-0.23l-0.27-0.23l-0.27-0.24l-0.27-0.24l-0.27-0.24
	l-0.26-0.24l-0.26-0.24l-0.26-0.24l-0.26-0.24l-0.26-0.24l-0.26-0.24l-0.26-0.25l-0.26-0.25l-0.26-0.25l-0.26-0.25l-0.25-0.25
	l-0.25-0.25l-0.25-0.25l-0.25-0.25l-0.25-0.25l-0.25-0.25l-0.25-0.26l-0.25-0.26l-0.25-0.26l-0.25-0.26l-0.24-0.26l-0.24-0.26
	l-0.24-0.26l-0.24-0.26l-0.24-0.26l-0.24-0.26l-0.24-0.27l-0.24-0.27l-0.24-0.27l-0.23-0.27l-0.23-0.27l-0.23-0.27l-0.23-0.27
	l-0.23-0.27l-0.14-0.16l-0.23-0.27l-0.23-0.27l-0.23-0.27l-0.23-0.28l-0.22-0.28l-0.22-0.28l-0.22-0.28l-0.22-0.28l-0.22-0.28
	l-0.22-0.28l-0.22-0.28l-0.22-0.28l-0.21-0.28l-0.21-0.28l-0.21-0.29l-0.21-0.29l-0.21-0.29l-0.21-0.29l-0.21-0.29l-0.21-0.29
	l-0.21-0.29l-0.2-0.29l-0.2-0.29l-0.2-0.29l-0.2-0.29l-0.2-0.29l-0.2-0.3l-0.2-0.3l-0.2-0.3l-0.2-0.3l-0.19-0.3l-0.19-0.3l-0.19-0.3
	l-0.19-0.3l-0.19-0.3l-0.19-0.3l-0.19-0.3l-0.19-0.3l-0.18-0.3l-0.18-0.31l-0.18-0.31l-0.13-0.22l-0.18-0.31l-0.18-0.31l-0.18-0.31
	l-0.18-0.31l-0.17-0.31l-0.17-0.31l-0.17-0.31l-0.17-0.31l-0.17-0.31l-0.17-0.31l-0.17-0.31l-0.17-0.32L12.6,131l-0.16-0.32
	l-0.16-0.32l-0.16-0.32l-0.16-0.32l-0.16-0.32l-0.16-0.32l-0.16-0.32l-0.15-0.32l-0.15-0.32l-0.15-0.32l-0.15-0.32l-0.15-0.32
	l-0.15-0.32l-0.15-0.33l-0.14-0.33l-0.14-0.33l-0.14-0.33l-0.14-0.33l-0.14-0.33l-0.14-0.33l-0.14-0.33l-0.14-0.33l-0.13-0.33
	l-0.13-0.33l-0.13-0.33l-0.13-0.33l-0.13-0.33l-0.13-0.33l-0.13-0.33l-0.07-0.2l-0.12-0.33l-0.12-0.33l-0.12-0.34l-0.12-0.34
	l-0.12-0.34l-0.12-0.34l-0.12-0.34l-0.12-0.34l-0.11-0.34l-0.11-0.34l-0.11-0.34l-0.11-0.34l-0.11-0.34l-0.11-0.34l-0.11-0.34
	l-0.1-0.34l-0.1-0.34l-0.1-0.34l-0.1-0.34l-0.1-0.34L6,114.25l-0.1-0.34l-0.09-0.34l-0.09-0.34l-0.09-0.34l-0.09-0.35l-0.09-0.35
	l-0.09-0.35l-0.08-0.35l-0.08-0.35l-0.08-0.35l-0.08-0.35l-0.08-0.35l-0.08-0.35l-0.08-0.35l-0.07-0.35l-0.07-0.35l-0.07-0.35
	l-0.07-0.35l-0.07-0.35l-0.07-0.35l-0.06-0.35l-0.06-0.35l-0.05-0.29l-0.06-0.35l-0.06-0.35l-0.06-0.35L4,104.93l-0.05-0.35
	l-0.05-0.35l-0.05-0.35l-0.05-0.35l-0.05-0.35l-0.04-0.34l-0.04-0.34l-0.04-0.34l-0.04-0.34l-0.04-0.34l-0.04-0.34l-0.04-0.33
	l-0.04-0.33l-0.03-0.33l-0.03-0.33l-0.03-0.32l-0.03-0.32l-0.03-0.32l-0.03-0.31l-0.03-0.31L3.2,97.94l-0.02-0.3l-0.02-0.3
	l-0.02-0.29l-0.02-0.29l-0.02-0.28L3.07,96.2l-0.02-0.27l-0.02-0.27l-0.02-0.26l-0.01-0.26l-0.01-0.25l-0.01-0.25l-0.01-0.24
	l-0.01-0.23l-0.01-0.23l-0.01-0.22l-0.01-0.22l-0.01-0.21l-0.01-0.2l-0.01-0.2L2.89,92.7l-0.01-0.27l-0.01-0.25l-0.01-0.23
	l-0.01-0.21l-0.01-0.2L2.85,91.3l0-0.2l0-0.19l0-0.18l0-0.03l0-0.22l0-0.24l0-0.21l0.01-0.24l0.01-0.2l0.01-0.22l0.01-0.24
	l0.01-0.26l0.01-0.28L2.9,88.4l0.01-0.2L2.92,88l0.01-0.21l0.01-0.22l0.01-0.23l0.01-0.23l0.01-0.24l0.01-0.24L3,86.37l0.01-0.26
	l0.02-0.26l0.02-0.27l0.02-0.27l0.02-0.28l0.02-0.28l0.02-0.29l0.02-0.29l0.02-0.3l0.02-0.3l0.03-0.3l0.03-0.31l0.03-0.31l0.03-0.31
	l0.03-0.32l0.03-0.32l0.03-0.32l0.03-0.33l0.03-0.33l0.04-0.33l0.04-0.33l0.04-0.34l0.04-0.34l0.04-0.34l0.04-0.34l0.04-0.34
	L3.78,78l0.05-0.35l0.05-0.35l0.05-0.35l0.05-0.35l0.05-0.35l0.05-0.35l0.06-0.35l0.06-0.35l0.05-0.3l0.06-0.35l0.06-0.35l0.06-0.35
	l0.07-0.35l0.07-0.35l0.07-0.35l0.07-0.35l0.07-0.35l0.07-0.35l0.08-0.35l0.08-0.35l0.08-0.35l0.08-0.35l0.08-0.35l0.08-0.35
	l0.09-0.35L5.51,69l0.09-0.35l0.09-0.34l0.09-0.34l0.09-0.34l0.09-0.34l0.1-0.34l0.1-0.34l0.1-0.34l0.1-0.34l0.1-0.34l0.1-0.34
	l0.11-0.34l0.11-0.34l0.11-0.34L7,63.86l0.11-0.34l0.11-0.34l0.11-0.34l0.11-0.34l0.12-0.34l0.12-0.34l0.12-0.34l0.12-0.34
	l0.12-0.34l0.12-0.33l0.12-0.33l0.1-0.27l0.13-0.33l0.13-0.33l0.13-0.33l0.13-0.33l0.13-0.33l0.13-0.33l0.13-0.33l0.14-0.33
	l0.14-0.33l0.14-0.33l0.14-0.33L10,55.91l0.14-0.33l0.14-0.33l0.14-0.33l0.15-0.32l0.15-0.32l0.15-0.32l0.15-0.32l0.15-0.32
	l0.15-0.32l0.15-0.32l0.15-0.32l0.16-0.32l0.16-0.32l0.16-0.32l0.16-0.32l0.16-0.32l0.16-0.32l0.16-0.32l0.17-0.32l0.17-0.31
	l0.17-0.31l0.17-0.31l0.17-0.31l0.17-0.31l0.17-0.31l0.17-0.31l0.18-0.31L14.46,47l0.18-0.31l0.18-0.31l0.11-0.18l0.18-0.31
	l0.18-0.31l0.18-0.31l0.18-0.3l0.19-0.3l0.19-0.3l0.19-0.3l0.19-0.3l0.19-0.3l0.19-0.3l0.19-0.3l0.19-0.3l0.2-0.3l0.2-0.3l0.2-0.3
	l0.2-0.3l0.2-0.29l0.2-0.29l0.2-0.29l0.2-0.29l0.21-0.29l0.21-0.29l0.21-0.29l0.21-0.29l0.21-0.29l0.21-0.29l0.21-0.29l0.21-0.29
	l0.21-0.28l0.22-0.28l0.22-0.28l0.22-0.28l0.22-0.28l0.22-0.28l0.22-0.28l0.22-0.28l0.22-0.28l0.23-0.28l0.23-0.28l0.23-0.27
	l0.23-0.27l0.16-0.19l0.23-0.27l0.23-0.27l0.23-0.27l0.23-0.27l0.23-0.27l0.24-0.27l0.24-0.27l0.24-0.27l0.24-0.26l0.24-0.26
	l0.24-0.26l0.24-0.26l0.24-0.26l0.24-0.26l0.25-0.26l0.25-0.26l0.25-0.26l0.25-0.26l0.25-0.25l0.25-0.25l0.25-0.25l0.25-0.25
	l0.25-0.25l0.25-0.25l0.26-0.25l0.26-0.25l0.26-0.25l0.26-0.25l0.26-0.24l0.26-0.24l0.26-0.24l0.26-0.24l0.26-0.24l0.26-0.24
	l0.26-0.24l0.27-0.24l0.27-0.24l0.27-0.23l0.27-0.23l0.27-0.23l0.27-0.23l0.27-0.23l0.16-0.14l0.27-0.23l0.27-0.23l0.28-0.23
	l0.28-0.23l0.28-0.22l0.28-0.22l0.28-0.22l0.28-0.22l0.28-0.22L37,21.15l0.28-0.22l0.28-0.22l0.28-0.22l0.29-0.21l0.29-0.21
	l0.29-0.21L39,19.65l0.29-0.21l0.29-0.21l0.29-0.21l0.29-0.21l0.29-0.2l0.29-0.2l0.29-0.2l0.29-0.2l0.3-0.2l0.3-0.2l0.3-0.2l0.3-0.2
	l0.3-0.2l0.3-0.19l0.3-0.19l0.3-0.19l0.3-0.19l0.3-0.19l0.3-0.19l0.3-0.19l0.3-0.19l0.31-0.18l0.31-0.18l0.31-0.18l0.22-0.13
	l0.31-0.18l0.31-0.18l0.31-0.18l0.31-0.18l0.31-0.17l0.31-0.17l0.31-0.17l0.31-0.17l0.31-0.17l0.31-0.17l0.31-0.17l0.32-0.17
	l0.32-0.16l0.32-0.16l0.32-0.16l0.32-0.16l0.32-0.16L52,11.8l0.32-0.16l0.32-0.15l0.32-0.15l0.32-0.15l0.32-0.15l0.32-0.15
	l0.32-0.15l0.32-0.15l0.33-0.15l0.33-0.14l0.33-0.14l0.33-0.14l0.33-0.14l0.33-0.14l0.33-0.14l0.33-0.14l0.33-0.14l0.33-0.13
	l0.33-0.13l0.33-0.13l0.33-0.13l0.33-0.13l0.33-0.13l0.33-0.13l0.19-0.07l0.33-0.12l0.33-0.12l0.34-0.12l0.34-0.12l0.34-0.12
	l0.34-0.12l0.34-0.12l0.34-0.12l0.34-0.11l0.34-0.11l0.34-0.11l0.34-0.11l0.34-0.11l0.34-0.11l0.34-0.11l0.34-0.1l0.34-0.1l0.34-0.1
	l0.34-0.1l0.34-0.1L67.16,6l0.34-0.1l0.34-0.09l0.34-0.09l0.34-0.09l0.35-0.09l0.35-0.09l0.35-0.09l0.35-0.08l0.35-0.08l0.35-0.08
	l0.35-0.08l0.35-0.08l0.35-0.08l0.35-0.08l0.35-0.07l0.35-0.07l0.35-0.07l0.35-0.07l0.35-0.07l0.35-0.07l0.35-0.06l0.35-0.06
	l0.29-0.05l0.35-0.06l0.35-0.06l0.35-0.06L76.49,4l0.35-0.05l0.35-0.05l0.35-0.05l0.35-0.05l0.35-0.05l0.34-0.04l0.34-0.04
	l0.34-0.04l0.34-0.04l0.34-0.04l0.34-0.04l0.33-0.04l0.33-0.03l0.33-0.03l0.33-0.03l0.32-0.03l0.32-0.03l0.32-0.03l0.31-0.03
	l0.31-0.03l0.31-0.03l0.3-0.02l0.3-0.02l0.29-0.02l0.29-0.02l0.28-0.02l0.28-0.02l0.27-0.02l0.27-0.02l0.26-0.02l0.26-0.02
	l0.25-0.01l0.25-0.01l0.24-0.01l0.23-0.01l0.23-0.01l0.22-0.01l0.22-0.01l0.21-0.01l0.2-0.01l0.19-0.01l0.19-0.01l0.27-0.01
	l0.25-0.01l0.23-0.01l0.21-0.01l0.2-0.01l0.23-0.01l0.19,0l0.19,0l0.18,0l0.03,0l0.22,0l0.24,0l0.21,0l0.24,0.01l0.2,0.01l0.22,0.01
	l0.24,0.01l0.26,0.01l0.28,0.01l0.19,0.01l0.2,0.01l0.21,0.01l0.21,0.01l0.22,0.01l0.23,0.01l0.23,0.01l0.24,0.01l0.25,0.01L95.05,3
	l0.26,0.01l0.26,0.02l0.27,0.02l0.27,0.02l0.28,0.02l0.28,0.02l0.29,0.02l0.29,0.02l0.3,0.02l0.3,0.02l0.3,0.02l0.31,0.03l0.31,0.03
	l0.31,0.03l0.32,0.03l0.32,0.03l0.32,0.03l0.33,0.03l0.33,0.03l0.33,0.04l0.33,0.04l0.34,0.04l0.34,0.04l0.34,0.04l0.34,0.04
	l0.34,0.04l0.35,0.05l0.35,0.05l0.35,0.05l0.35,0.05l0.35,0.05l0.35,0.05l0.35,0.05l0.35,0.06l0.35,0.06l0.3,0.05l0.35,0.06
	l0.35,0.06l0.35,0.06l0.35,0.07l0.35,0.07l0.35,0.07l0.35,0.07l0.35,0.07l0.35,0.07l0.35,0.08l0.35,0.08l0.35,0.08l0.35,0.08
	l0.35,0.08l0.35,0.08l0.35,0.09l0.35,0.09l0.35,0.09l0.34,0.09l0.34,0.09l0.34,0.09l0.34,0.09l0.34,0.1l0.34,0.1l0.34,0.1l0.34,0.1
	l0.34,0.1l0.34,0.1l0.34,0.11l0.34,0.11l0.34,0.11L117.56,7l0.34,0.11l0.34,0.11l0.34,0.11l0.34,0.11l0.34,0.12l0.34,0.12l0.34,0.12
	l0.34,0.12l0.34,0.12l0.33,0.12l0.33,0.12l0.27,0.1l0.33,0.13l0.33,0.13l0.33,0.13l0.33,0.13l0.33,0.13l0.33,0.13l0.33,0.13
	l0.33,0.14l0.33,0.14l0.33,0.14l0.33,0.14L125.5,10l0.33,0.14l0.33,0.14l0.33,0.14l0.32,0.15l0.32,0.15l0.32,0.15l0.32,0.15
	l0.32,0.15l0.32,0.15l0.32,0.15l0.32,0.15l0.32,0.16l0.32,0.16l0.32,0.16l0.32,0.16l0.32,0.16l0.32,0.16l0.32,0.16l0.32,0.17
	l0.31,0.17l0.31,0.17l0.31,0.17l0.31,0.17l0.31,0.17l0.31,0.17l0.31,0.17l0.31,0.18l0.31,0.18l0.31,0.18l0.31,0.18l0.18,0.11
	l0.31,0.18l0.31,0.18l0.31,0.18l0.3,0.18l0.3,0.19l0.3,0.19l0.3,0.19l0.3,0.19l0.3,0.19l0.3,0.19l0.3,0.19l0.3,0.19l0.3,0.2l0.3,0.2
	l0.3,0.2l0.3,0.2l0.29,0.2l0.29,0.2l0.29,0.2l0.29,0.2l0.29,0.21l0.29,0.21l0.29,0.21l0.29,0.21l0.29,0.21l0.29,0.21l0.29,0.21
	l0.29,0.21l0.28,0.21l0.28,0.22l0.28,0.22l0.28,0.22l0.28,0.22l0.28,0.22l0.28,0.22l0.28,0.22l0.28,0.22l0.28,0.23l0.28,0.23
	l0.27,0.23l0.27,0.23l0.19,0.16l0.27,0.23l0.27,0.23l0.27,0.23l0.27,0.23l0.27,0.23l0.27,0.24l0.27,0.24l0.27,0.24l0.26,0.24
	l0.26,0.24l0.26,0.24l0.26,0.24l0.26,0.24l0.26,0.24l0.26,0.25l0.26,0.25l0.26,0.25l0.26,0.25l0.25,0.25l0.25,0.25l0.25,0.25
	l0.25,0.25l0.25,0.25l0.25,0.25l0.25,0.26l0.25,0.26l0.25,0.26l0.24,0.26l0.24,0.26l0.24,0.26l0.24,0.26l0.24,0.26l0.24,0.26
	l0.24,0.26l0.24,0.27l0.24,0.27l0.24,0.27l0.23,0.27l0.23,0.27l0.23,0.27l0.23,0.27l0.23,0.27l0.14,0.16l0.23,0.27l0.23,0.27
	l0.23,0.28l0.23,0.28l0.22,0.28l0.22,0.28l0.22,0.28l0.22,0.28l0.22,0.28l0.22,0.28l0.22,0.28l0.22,0.28l0.21,0.28l0.21,0.28
	l0.21,0.29l0.21,0.29l0.21,0.29l0.21,0.29l0.21,0.29l0.21,0.29l0.21,0.29l0.2,0.29l0.2,0.29l0.2,0.29l0.2,0.29l0.2,0.29l0.2,0.3
	l0.2,0.3l0.2,0.3l0.2,0.3l0.19,0.3l0.19,0.3l0.19,0.3l0.19,0.3l0.19,0.3l0.19,0.3l0.19,0.3l0.19,0.3l0.18,0.31l0.18,0.31l0.18,0.31
	l0.13,0.22l0.18,0.31l0.18,0.31l0.18,0.31l0.18,0.31l0.17,0.31l0.17,0.31l0.17,0.31l0.17,0.31l0.17,0.31l0.17,0.31l0.17,0.31
	l0.17,0.32l0.16,0.32l0.16,0.32l0.16,0.32l0.16,0.32l0.16,0.32l0.16,0.32l0.16,0.32l0.15,0.32l0.15,0.32l0.15,0.32l0.15,0.32
	l0.15,0.32l0.15,0.32l0.15,0.32l0.15,0.33l0.14,0.33l0.14,0.33l0.14,0.33l0.14,0.33l0.14,0.33l0.14,0.33l0.14,0.33l0.14,0.33
	l0.13,0.33l0.13,0.33l0.13,0.33l0.13,0.33l0.13,0.33l0.13,0.33l0.13,0.33l0.07,0.19l0.12,0.33l0.12,0.33l0.12,0.34l0.12,0.34
	l0.12,0.34l0.12,0.34l0.12,0.34l0.12,0.34l0.11,0.34l0.11,0.34l0.11,0.34l0.11,0.34l0.11,0.34l0.11,0.34l0.11,0.34l0.1,0.34
	l0.1,0.34l0.1,0.34l0.1,0.34l0.1,0.34l0.1,0.34l0.1,0.34l0.09,0.34l0.09,0.34l0.09,0.34l0.09,0.35l0.09,0.35l0.09,0.35l0.08,0.35
	l0.08,0.35l0.08,0.35l0.08,0.35l0.08,0.35l0.08,0.35l0.08,0.35l0.07,0.35l0.07,0.35l0.07,0.35l0.07,0.35l0.07,0.35l0.07,0.35
	l0.06,0.35l0.06,0.35l0.05,0.29l0.06,0.35l0.06,0.35l0.06,0.35l0.05,0.35l0.05,0.35l0.05,0.35l0.05,0.35l0.05,0.35l0.05,0.35
	l0.04,0.34l0.04,0.34l0.04,0.34l0.04,0.34l0.04,0.34l0.04,0.34l0.04,0.33l0.03,0.33l0.03,0.33l0.03,0.33l0.03,0.32l0.03,0.32
	l0.03,0.32l0.03,0.31l0.03,0.31l0.03,0.31l0.02,0.3l0.02,0.3l0.02,0.29l0.02,0.29l0.02,0.28l0.02,0.28l0.02,0.27l0.02,0.27
	l0.02,0.26l0.01,0.26l0.01,0.25l0.01,0.25l0.01,0.24l0.01,0.23l0.01,0.23l0.01,0.22l0.01,0.22l0.01,0.21l0.01,0.2l0.01,0.2
	l0.01,0.19l0.01,0.27l0.01,0.25l0.01,0.23l0.01,0.21l0.01,0.2l0.01,0.23l0,0.2l0,0.19l0,0.18L178.58,90.71z M144.92,101.23
	l-0.29,0.03l-0.29,0.03l-0.24,0.03l-0.28,0.03l-0.31,0.04l-0.35,0.04l-0.38,0.04l-0.41,0.05l-0.43,0.05l-0.46,0.05l-0.48,0.06
	l-0.5,0.06l-0.52,0.06l-0.54,0.06l-0.55,0.06l-0.56,0.07l-0.58,0.07l-0.58,0.07l-0.59,0.07l-0.59,0.07l-0.6,0.07l-0.6,0.07
	l-0.59,0.07l-0.59,0.07l-0.58,0.07l-0.58,0.07l-0.56,0.07l-0.55,0.06l-0.54,0.06l-0.52,0.06l-0.5,0.06l-0.48,0.06l-0.46,0.05
	l-0.43,0.05l-0.41,0.05l-0.38,0.04l-0.35,0.04l-0.31,0.04l-0.28,0.03l-0.24,0.03l-0.2,0.02l-0.23,0.03l-0.15,0.02l0.12-0.37
	l0.11-0.35l0.15-0.45l0.18-0.55l0.21-0.64l0.24-0.73l0.27-0.82l0.3-0.9l0.32-0.97l0.34-1.04l0.37-1.11l0.38-1.16l0.4-1.22l0.42-1.27
	l0.43-1.31l0.45-1.35l0.46-1.38l0.47-1.41l0.47-1.43l0.48-1.45l0.48-1.46l0.49-1.47l0.49-1.47l0.49-1.47l0.48-1.46l0.48-1.45
	l0.47-1.43l0.47-1.41l0.46-1.38l0.45-1.35l0.43-1.31l0.42-1.27l0.4-1.22l0.38-1.16l0.37-1.11l0.34-1.04l0.32-0.97l0.3-0.9l0.27-0.82
	l0.24-0.73l0.21-0.64l0.18-0.55l0.15-0.45l0.11-0.35l0.08-0.24l0.04-0.14l-0.45,0.16l-0.42,0.15l-0.55,0.19l-0.67,0.24l-0.78,0.28
	l-0.89,0.32l-0.99,0.35l-1.09,0.39l-1.18,0.42l-1.26,0.45l-1.34,0.48l-1.41,0.5l-1.48,0.53l-1.54,0.55l-1.59,0.56l-1.64,0.58
	l-1.68,0.6l-1.71,0.61l-1.74,0.62l-1.76,0.63l-1.77,0.63l-1.78,0.63l-1.79,0.64l-1.78,0.63l-1.77,0.63l-1.76,0.63l-1.74,0.62
	l-1.71,0.61l-1.68,0.6l-1.64,0.58l-1.59,0.57l-1.54,0.55l-1.48,0.53l-1.41,0.5l-1.34,0.48l-1.26,0.45l-1.18,0.42l-1.09,0.39
	l-0.99,0.35l-0.89,0.32l-0.78,0.28l-0.67,0.24l-0.55,0.19l-0.42,0.15l-0.28,0.1l-0.15,0.05l-0.02,0.01v-0.28v-0.24v-0.31v-0.24
	v-0.26V75v-0.31v-0.33v-0.35v-0.36v-0.38v-0.39v-0.41v-0.42v-0.43v-0.44v-0.44V70.3v-0.45V69.4v-0.45V68.5v-0.45v-0.44v-0.44v-0.43
	v-0.42v-0.41v-0.39v-0.38v-0.36v-0.35v-0.33V63.8v-0.29v-0.26v-0.24V62.8v-0.18V62.4v-0.18v-0.04l-0.43,0.23l-0.4,0.21l-0.52,0.28
	l-0.64,0.34l-0.75,0.4l-0.86,0.45l-0.95,0.51l-1.05,0.55l-1.13,0.6l-1.21,0.64l-1.29,0.68l-1.36,0.72l-1.42,0.75l-1.48,0.78
	l-1.53,0.81l-1.57,0.83l-1.61,0.85l-1.64,0.87l-1.67,0.89l-1.69,0.9l-1.7,0.9l-1.71,0.91L55.9,77.2l-1.71,0.91l-1.7,0.9l-1.69,0.9
	l-1.67,0.88l-1.64,0.87l-1.61,0.85l-1.57,0.83l-1.53,0.81l-1.48,0.78l-1.42,0.75l-1.36,0.72l-1.29,0.68l-1.21,0.64l-1.13,0.6
	l-1.05,0.55l-0.95,0.51l-0.85,0.45l-0.75,0.4l-0.64,0.34l-0.52,0.28l-0.4,0.21l-0.27,0.15l-0.14,0.07l-0.02,0.01l0.4-0.07l0.3-0.05
	l0.38-0.07l0.46-0.08l0.53-0.09l0.59-0.1l0.65-0.12l0.71-0.13l0.77-0.14l0.82-0.14l0.87-0.15l0.91-0.16l0.95-0.17l0.98-0.17
	l1.01-0.18l1.04-0.18l1.06-0.19l1.08-0.19l1.1-0.19l1.11-0.2l1.12-0.2l1.12-0.2l1.12-0.2l1.12-0.2l1.11-0.2l1.1-0.19l1.08-0.19
	l1.06-0.19l1.04-0.18l1.01-0.18l0.98-0.17l0.95-0.17l0.91-0.16l0.87-0.15l0.82-0.14l0.77-0.14l0.71-0.13l0.66-0.12l0.59-0.1
	l0.53-0.09l0.46-0.08l0.38-0.07l0.3-0.05l0.22-0.04l0.18-0.03l-0.08,0.37l-0.08,0.35l-0.1,0.45l-0.12,0.55l-0.15,0.65l-0.17,0.74
	l-0.19,0.83l-0.2,0.91l-0.22,0.98l-0.24,1.05l-0.25,1.11l-0.26,1.17l-0.28,1.23l-0.29,1.28l-0.3,1.32l-0.31,1.36l-0.31,1.39
	l-0.32,1.42l-0.32,1.45l-0.33,1.46l-0.33,1.48l-0.33,1.48l-0.33,1.49L59.41,111l-0.33,1.48l-0.33,1.46l-0.32,1.45l-0.32,1.42
	l-0.31,1.39l-0.31,1.36l-0.3,1.32l-0.29,1.28l-0.28,1.23l-0.26,1.17l-0.25,1.11l-0.24,1.05l-0.22,0.98l-0.2,0.91l-0.19,0.83
	l-0.17,0.74l-0.15,0.65l-0.12,0.55l-0.1,0.45l-0.08,0.35l-0.05,0.24l-0.03,0.14l0.5-0.1l0.46-0.1l0.6-0.13l0.74-0.15l0.86-0.18
	l0.98-0.21l1.1-0.23l1.2-0.25l1.3-0.27l1.39-0.29l1.48-0.31l1.56-0.33l1.63-0.34l1.69-0.35l1.75-0.37l1.8-0.38l1.85-0.39l1.89-0.39
	l1.92-0.4l1.94-0.41l1.96-0.41l1.97-0.41l1.97-0.41l1.97-0.41l1.96-0.41l1.94-0.41l1.92-0.4l1.89-0.39l1.85-0.39l1.8-0.38l1.75-0.37
	l1.7-0.35l1.63-0.34l1.56-0.33l1.48-0.31l1.39-0.29l1.3-0.27l1.2-0.25l1.1-0.23l0.98-0.21l0.86-0.18l0.74-0.15l0.6-0.13l0.46-0.1
	l0.31-0.07l0.16-0.03l0.02,0l-0.03,0.32l-0.02,0.24l-0.03,0.3l-0.04,0.36l-0.04,0.42l-0.05,0.47l-0.05,0.52l-0.05,0.57l-0.06,0.61
	l-0.06,0.65l-0.07,0.69l-0.07,0.72l-0.07,0.75l-0.08,0.78l-0.08,0.81l-0.08,0.83l-0.08,0.85l-0.08,0.86l-0.08,0.88l-0.09,0.89
	l-0.09,0.89l-0.09,0.89l-0.09,0.89l-0.09,0.89l-0.09,0.89l-0.08,0.88l-0.08,0.86l-0.08,0.85l-0.08,0.83l-0.08,0.81l-0.08,0.78
	l-0.07,0.75l-0.07,0.72l-0.07,0.69l-0.06,0.65l-0.06,0.61l-0.06,0.57l-0.05,0.52l-0.05,0.47l-0.04,0.42l-0.04,0.36l-0.03,0.3
	l-0.02,0.24l-0.02,0.18l-0.01,0.15l0.24-0.37l0.22-0.34l0.29-0.45l0.35-0.55l0.41-0.64l0.47-0.73l0.52-0.81l0.57-0.89l0.62-0.96
	l0.66-1.03l0.7-1.1l0.74-1.15l0.77-1.21l0.81-1.26l0.83-1.3l0.86-1.34l0.88-1.37l0.9-1.4l0.91-1.42l0.92-1.44l0.93-1.45l0.93-1.46
	l0.94-1.46l0.94-1.46l0.93-1.45l0.92-1.44l0.91-1.42l0.9-1.4l0.88-1.37l0.86-1.34l0.83-1.3l0.8-1.26l0.77-1.21l0.74-1.15l0.7-1.1
	l0.66-1.03l0.62-0.96l0.57-0.89l0.52-0.81l0.47-0.73l0.41-0.64l0.35-0.55l0.29-0.45l0.22-0.34l0.15-0.23L144.92,101.23z"/>
</svg>
