<?xml version="1.0" encoding="utf-8"?>
<!-- Generator: Adobe Illustrator 26.3.1, SVG Export Plug-In . SVG Version: 6.00 Build 0)  -->
<svg version="1.1" id="Layer_1" xmlns="http://www.w3.org/2000/svg" xmlns:xlink="http://www.w3.org/1999/xlink" x="0px" y="0px"
	 viewBox="0 0 16 16" style="enable-background:new 0 0 16 16;" xml:space="preserve">
<style type="text/css">
	.st0{fill-rule:evenodd;clip-rule:evenodd;}
</style>
<path class="st0" d="M8,11c0.3,0,0.5-0.2,0.5-0.5V1.7l4.1,4.1c0.2,0.2,0.5,0.2,0.7,0s0.2-0.5,0-0.7l-5-5C8.2,0,7.8,0,7.6,0.1l0,0
	l-5,5c-0.2,0.2-0.2,0.5,0,0.7s0.5,0.2,0.7,0l4.1-4.1v8.8C7.5,10.8,7.7,11,8,11z M0,15.5C0,15.2,0.2,15,0.5,15h15
	c0.3,0,0.5,0.2,0.5,0.5S15.8,16,15.5,16h-15C0.2,16,0,15.8,0,15.5z"/>
</svg>
