<?xml version="1.0" encoding="utf-8"?>
<!-- Generator: Adobe Illustrator 26.3.1, SVG Export Plug-In . SVG Version: 6.00 Build 0)  -->
<svg version="1.1" id="Layer_1" xmlns="http://www.w3.org/2000/svg" xmlns:xlink="http://www.w3.org/1999/xlink" x="0px" y="0px"
	 viewBox="0 0 16 16" style="enable-background:new 0 0 16 16;" xml:space="preserve">
<style type="text/css">
	.st0{fill-rule:evenodd;clip-rule:evenodd;}
</style>
<path class="st0" d="M7.4,0.5v8.8L3.3,5.2C3.1,5,2.8,5,2.6,5.2s-0.2,0.5,0,0.7l5,5l0,0c0.2,0.1,0.6,0.1,0.7,0l5-5
	c0.2-0.2,0.2-0.5,0-0.7s-0.5-0.2-0.7,0L8.5,9.3V0.5C8.5,0.2,8.3,0,8,0S7.5,0.2,7.4,0.5z M0,15.5C0,15.2,0.2,15,0.5,15h15
	c0.3,0,0.5,0.2,0.5,0.5S15.8,16,15.5,16h-15C0.2,16,0,15.8,0,15.5z"/>
</svg>
