<?xml version="1.0" encoding="utf-8"?>
<!-- Generator: Adobe Illustrator 27.2.0, SVG Export Plug-In . SVG Version: 6.00 Build 0)  -->
<svg version="1.1" id="visual" xmlns="http://www.w3.org/2000/svg" xmlns:xlink="http://www.w3.org/1999/xlink" x="0px" y="0px"
	 viewBox="0 0 600 600" style="enable-background:new 0 0 600 600;" xml:space="preserve">
<path d="M419.6,30.7c59,21.9,126.1,52.1,158.2,109c32.2,57.1,29.4,140.8-8.7,194.5c-37.9,53.8-111.1,77.6-155.2,122
	s-59.6,109.5-91.8,132.6s-106.7,5.7-157.2-10.3c-50.7-16-77.2-30.7-115.5-67.1C10.8,475-13.9,415.5,8.5,369.2s91.8-79.1,119.5-128
	c27.5-48.9,13.4-113.8,28.1-159.8c14.8-46,58.6-72.9,106-79.7C309.5-4.9,360.5,8.6,419.6,30.7"/>
</svg>
