<?xml version="1.0" encoding="utf-8"?>
<!-- Generator: Adobe Illustrator 26.3.1, SVG Export Plug-In . SVG Version: 6.00 Build 0)  -->
<svg version="1.1" id="Layer_1" xmlns="http://www.w3.org/2000/svg" xmlns:xlink="http://www.w3.org/1999/xlink" x="0px" y="0px"
	 viewBox="0 0 16 16" style="enable-background:new 0 0 16 16;" xml:space="preserve">
<path d="M1,2c0-0.6,0.4-1,1-1h2c0.6,0,1,0.4,1,1v2c0,0.6-0.4,1-1,1H2C1.4,5,1,4.6,1,4V2z M6,2c0-0.6,0.4-1,1-1h2c0.6,0,1,0.4,1,1v2
	c0,0.6-0.4,1-1,1H7C6.4,5,6,4.6,6,4V2z M11,2c0-0.6,0.4-1,1-1h2c0.6,0,1,0.4,1,1v2c0,0.6-0.4,1-1,1h-2c-0.6,0-1-0.4-1-1V2z M1,7
	c0-0.6,0.4-1,1-1h2c0.6,0,1,0.4,1,1v2c0,0.6-0.4,1-1,1H2c-0.6,0-1-0.4-1-1V7z M6,7c0-0.6,0.4-1,1-1h2c0.6,0,1,0.4,1,1v2
	c0,0.6-0.4,1-1,1H7c-0.6,0-1-0.4-1-1V7z M11,7c0-0.6,0.4-1,1-1h2c0.6,0,1,0.4,1,1v2c0,0.6-0.4,1-1,1h-2c-0.6,0-1-0.4-1-1V7z M1,12
	c0-0.6,0.4-1,1-1h2c0.6,0,1,0.4,1,1v2c0,0.6-0.4,1-1,1H2c-0.6,0-1-0.4-1-1V12z M6,12c0-0.6,0.4-1,1-1h2c0.6,0,1,0.4,1,1v2
	c0,0.6-0.4,1-1,1H7c-0.6,0-1-0.4-1-1V12z M11,12c0-0.6,0.4-1,1-1h2c0.6,0,1,0.4,1,1v2c0,0.6-0.4,1-1,1h-2c-0.6,0-1-0.4-1-1V12z"/>
</svg>
