<?xml version="1.0" encoding="utf-8"?>
<!-- Generator: Adobe Illustrator 26.3.1, SVG Export Plug-In . SVG Version: 6.00 Build 0)  -->
<svg version="1.1" id="Layer_1" xmlns="http://www.w3.org/2000/svg" xmlns:xlink="http://www.w3.org/1999/xlink" x="0px" y="0px"
	 viewBox="0 0 16 16" style="enable-background:new 0 0 16 16;" xml:space="preserve">
<path d="M11.2,3.4L8,6.6L4.8,3.4C4.4,3,3.8,3,3.4,3.4s-0.4,1,0,1.4L6.6,8l-3.2,3.2c-0.4,0.4-0.4,1,0,1.4s1,0.4,1.4,0L8,9.4l3.2,3.2
	c0.4,0.4,1,0.4,1.4,0c0.4-0.4,0.4-1,0-1.4L9.4,8l3.2-3.2c0.4-0.4,0.4-1,0-1.4C12.2,3,11.6,3,11.2,3.4z"/>
</svg>
